<?xml version="1.0" standalone="no"?><!DOCTYPE svg PUBLIC "-//W3C//DTD SVG 1.1//EN" "http://www.w3.org/Graphics/SVG/1.1/DTD/svg11.dtd"><svg t="1591278832710" class="icon" viewBox="0 0 1024 1024" version="1.1" xmlns="http://www.w3.org/2000/svg" p-id="5447" xmlns:xlink="http://www.w3.org/1999/xlink" width="128" height="128"><defs><style type="text/css">@font-face { font-family: element-icons; src: url("chrome-extension://moombeodfomdpjnpocobemoiaemednkg/fonts/element-icons.woff") format("woff"), url("chrome-extension://moombeodfomdpjnpocobemoiaemednkg/fonts/element-icons.ttf ") format("truetype"); }
</style></defs><path d="M338.474667 725.333333c49.066667 27.861333 104.810667 42.666667 162.858666 42.666667 58.069333 0 113.792-14.805333 162.858667-42.666667H338.474667z m503.232-145.834666c6.912 5.290667 11.626667 16.085333 11.626666 28.501333 0 17.664-9.536 32-21.333333 32h-76.501333A12.501333 12.501333 0 0 0 746.666667 661.333333h88.597333l-54.314667 54.592A391.893333 391.893333 0 0 1 501.333333 832a391.893333 391.893333 0 0 1-279.594666-116.074667L167.402667 661.333333H277.333333a12.48 12.48 0 0 0-8.832-21.333333H170.666667c-11.776 0-21.333333-14.336-21.333334-32S158.890667 576 170.666667 576h7.466666c-57.088-50.474667-94.165333-106.496-106.325333-149.290667-40.32-142.186667 83.456-74.837333 187.242667-108.074666 95.936-30.805333 156.373333-164.245333 249.301333-169.109334v-0.106666C509.12 149.333333 509.781333 149.333333 510.357333 149.333333h3.285334c0.746667 0 1.344 0.085333 2.005333 0.085334v0.106666c92.949333 4.864 153.344 138.304 249.28 169.024 103.808 33.322667 227.584-34.112 187.264 108.16-12.437333 43.733333-51.029333 101.397333-110.506667 152.789334zM737.706667 576c78.933333-47.850667 138.432-115.925333 152.874666-166.741333 1.621333-5.696 2.837333-10.688 3.690667-14.912a651.392 651.392 0 0 0-28.672-0.576c-35.52-0.234667-52.736-0.938667-75.477333-4.181334a269.482667 269.482667 0 0 1-44.736-10.090666c-48.597333-15.552-81.066667-40.832-138.026667-96.725334l-9.066667-8.874666-8.725333-8.533334c-38.378667-37.141333-59.584-51.008-77.269333-51.925333L512 213.418667l-0.32 0.021333c-17.685333 0.917333-38.912 14.784-77.226667 51.946667-2.645333 2.538667-5.397333 5.205333-8.789333 8.554666l-9.066667 8.896c-56.896 55.850667-89.386667 81.152-138.026666 96.746667a270.72 270.72 0 0 1-44.757334 10.090667c-22.72 3.221333-39.893333 3.925333-75.370666 4.138666-13.845333 0.085333-22.336 0.234667-28.736 0.576 0.853333 4.224 2.069333 9.173333 3.669333 14.848 14.442667 50.901333 73.834667 118.933333 152.661333 166.762667h451.690667z m-223.189334-106.922667l-2.496 0.256h-0.213333l-2.56-0.256c-69.802667-27.093333-61.589333-87.893333-61.205333-88.64l0.469333-1.450666 3.968-1.002667c1.514667 0 28.16-11.648 4.16-38.186667l0.384-2.645333 2.261333-1.109333c32.448-12.266667 50.346667-14.613333 51.413334-14.997334l0.810666-0.213333h0.917334l0.789333 0.256c0.298667 0.106667 11.52 0 52.778667 14.954667l2.282666 1.109333 0.362667 2.624c-22.037333 29.546667 2.453333 38.208 2.837333 38.208l4.138667 1.002667v1.450666c0 0.725333 8.682667 61.525333-61.098667 88.64z" fill="#ffffff" p-id="5448"></path></svg>